<?xml version="1.0" standalone="no"?>
<!DOCTYPE svg PUBLIC "-//W3C//DTD SVG 20010904//EN"
 "http://www.w3.org/TR/2001/REC-SVG-20010904/DTD/svg10.dtd">
<svg version="1.0" xmlns="http://www.w3.org/2000/svg"
 width="1280.000000pt" height="1280.000000pt" viewBox="0 0 1280.000000 1280.000000"
 preserveAspectRatio="xMidYMid meet">
<metadata>
Created by potrace 1.15, written by Peter Selinger 2001-2017
</metadata>
<g transform="translate(0.000000,1280.000000) scale(0.100000,-0.100000)"
fill="#000000" stroke="none">
<path d="M5735 11059 c-616 -59 -1225 -332 -1785 -802 -832 -697 -1337 -1771
-1480 -3147 -109 -1046 21 -2081 373 -2980 113 -290 303 -642 481 -894 240
-342 570 -666 947 -931 458 -322 861 -484 1389 -556 125 -18 516 -18 640 0
203 28 328 59 1000 251 867 248 898 259 1171 395 540 271 965 651 1314 1175
367 551 585 1148 709 1945 57 366 74 696 57 1105 -13 305 -24 431 -57 650
-139 935 -426 1651 -903 2250 -100 126 -332 362 -454 463 -301 249 -652 449
-1012 577 -93 33 -1302 381 -1473 424 -295 75 -629 102 -917 75z m763 -3462
c83 -214 128 -393 164 -657 20 -146 22 -207 22 -525 0 -375 -9 -502 -53 -762
-22 -127 -129 -506 -167 -592 l-26 -56 -26 50 c-131 254 -229 696 -253 1140
-26 491 26 898 157 1231 65 165 123 286 133 280 5 -4 27 -52 49 -109z"/>
</g>
</svg>
